<?xml version="1.0" encoding="UTF-8" standalone="no"?>
<!DOCTYPE svg PUBLIC "-//W3C//DTD SVG 1.1//EN"
 "http://www.w3.org/Graphics/SVG/1.1/DTD/svg11.dtd">
<!-- Generated by graphviz version 2.26.3 (20100126.1600)
 -->
<!-- Title: G Pages: 1 -->
<svg width="742pt" height="564pt"
 viewBox="0.00 0.00 742.00 564.00" xmlns="http://www.w3.org/2000/svg" xmlns:xlink="http://www.w3.org/1999/xlink">
<g id="graph1" class="graph" transform="scale(1 1) rotate(0) translate(4 560)">
<title>G</title>
<polygon fill="white" stroke="white" points="-4,5 -4,-560 739,-560 739,5 -4,5"/>
<g id="graph2" class="cluster"><title>cluster_Global</title>
<polyline fill="none" stroke="gray" points="417,-98 714,-98 "/>
<path fill="none" stroke="gray" d="M714,-98C720,-98 726,-104 726,-110"/>
<polyline fill="none" stroke="gray" points="726,-110 726,-536 "/>
<path fill="none" stroke="gray" d="M726,-536C726,-542 720,-548 714,-548"/>
<polyline fill="none" stroke="gray" points="714,-548 417,-548 "/>
<path fill="none" stroke="gray" d="M417,-548C411,-548 405,-542 405,-536"/>
<polyline fill="none" stroke="gray" points="405,-536 405,-110 "/>
<path fill="none" stroke="gray" d="M405,-110C405,-104 411,-98 417,-98"/>
<text text-anchor="middle" x="565.5" y="-534.1" font-family="Times Roman,serif" font-size="11.00" fill="gray">\</text>
</g>
<g id="graph3" class="cluster"><title>cluster_\PureLib</title>
<polyline fill="none" stroke="gray" points="425,-106 706,-106 "/>
<path fill="none" stroke="gray" d="M706,-106C712,-106 718,-112 718,-118"/>
<polyline fill="none" stroke="gray" points="718,-118 718,-506 "/>
<path fill="none" stroke="gray" d="M718,-506C718,-512 712,-518 706,-518"/>
<polyline fill="none" stroke="gray" points="706,-518 425,-518 "/>
<path fill="none" stroke="gray" d="M425,-518C419,-518 413,-512 413,-506"/>
<polyline fill="none" stroke="gray" points="413,-506 413,-118 "/>
<path fill="none" stroke="gray" d="M413,-118C413,-112 419,-106 425,-106"/>
<text text-anchor="middle" x="565.5" y="-504.1" font-family="Times Roman,serif" font-size="11.00" fill="gray">PureLib</text>
</g>
<g id="graph4" class="cluster"><title>cluster_\PureLib\MongoDB</title>
<polyline fill="none" stroke="gray" points="433,-114 698,-114 "/>
<path fill="none" stroke="gray" d="M698,-114C704,-114 710,-120 710,-126"/>
<polyline fill="none" stroke="gray" points="710,-126 710,-476 "/>
<path fill="none" stroke="gray" d="M710,-476C710,-482 704,-488 698,-488"/>
<polyline fill="none" stroke="gray" points="698,-488 433,-488 "/>
<path fill="none" stroke="gray" d="M433,-488C427,-488 421,-482 421,-476"/>
<polyline fill="none" stroke="gray" points="421,-476 421,-126 "/>
<path fill="none" stroke="gray" d="M421,-126C421,-120 427,-114 433,-114"/>
<text text-anchor="middle" x="565.5" y="-474.1" font-family="Times Roman,serif" font-size="11.00" fill="gray">MongoDB</text>
</g>
<g id="graph5" class="cluster"><title>cluster_\PureLib\MongoDB\Test</title>
<polyline fill="none" stroke="gray" points="441,-276 690,-276 "/>
<path fill="none" stroke="gray" d="M690,-276C696,-276 702,-282 702,-288"/>
<polyline fill="none" stroke="gray" points="702,-288 702,-446 "/>
<path fill="none" stroke="gray" d="M702,-446C702,-452 696,-458 690,-458"/>
<polyline fill="none" stroke="gray" points="690,-458 441,-458 "/>
<path fill="none" stroke="gray" d="M441,-458C435,-458 429,-452 429,-446"/>
<polyline fill="none" stroke="gray" points="429,-446 429,-288 "/>
<path fill="none" stroke="gray" d="M429,-288C429,-282 435,-276 441,-276"/>
<text text-anchor="middle" x="565.5" y="-444.1" font-family="Times Roman,serif" font-size="11.00" fill="gray">Test</text>
</g>
<!-- \\PureLib\\MongoDB\\Test\\BaseTest -->
<g id="node5" class="node"><title>\\PureLib\\MongoDB\\Test\\BaseTest</title>
<polygon fill="none" stroke="black" points="514,-374 438,-374 438,-338 514,-338 514,-374"/>
<text text-anchor="start" x="446" y="-361.433" font-family="Times Roman,serif" font-size="11.00">«abstract»</text>
<text text-anchor="start" x="451" y="-348.233" font-family="Times Roman,serif" font-size="11.00">BaseTest</text>
</g>
<!-- \\PHPUnit_Framework_TestCase -->
<g id="node17" class="node"><title>\\PHPUnit_Framework_TestCase</title>
<ellipse fill="none" stroke="black" cx="164" cy="-356" rx="164.049" ry="18.3848"/>
<text text-anchor="middle" x="164" y="-352.4" font-family="Times Roman,serif" font-size="14.00" fill="gray">\PHPUnit_Framework_TestCase</text>
</g>
<!-- \\PureLib\\MongoDB\\Test\\BaseTest&#45;&gt;\\PHPUnit_Framework_TestCase -->
<g id="edge10" class="edge"><title>\\PureLib\\MongoDB\\Test\\BaseTest&#45;&gt;\\PHPUnit_Framework_TestCase</title>
<path fill="none" stroke="black" d="M437.43,-356C411.613,-356 375.611,-356 338.193,-356"/>
<polygon fill="none" stroke="black" points="338.134,-352.5 328.134,-356 338.134,-359.5 338.134,-352.5"/>
</g>
<!-- \\PureLib\\MongoDB\\Test\\ClientTest -->
<g id="node6" class="node"><title>\\PureLib\\MongoDB\\Test\\ClientTest</title>
<polygon fill="none" stroke="black" points="693,-428 625,-428 625,-392 693,-392 693,-428"/>
<text text-anchor="middle" x="659" y="-407.1" font-family="Times Roman,serif" font-size="11.00">ClientTest</text>
</g>
<!-- \\PureLib\\MongoDB\\Test\\ClientTest&#45;&gt;\\PureLib\\MongoDB\\Test\\BaseTest -->
<g id="edge12" class="edge"><title>\\PureLib\\MongoDB\\Test\\ClientTest&#45;&gt;\\PureLib\\MongoDB\\Test\\BaseTest</title>
<path fill="none" stroke="black" d="M624.148,-399.716C595.889,-391.377 555.743,-379.531 524.37,-370.273"/>
<polygon fill="none" stroke="black" points="525.1,-366.839 514.518,-367.366 523.119,-373.553 525.1,-366.839"/>
</g>
<!-- \\PureLib\\MongoDB\\Test\\Config -->
<g id="node7" class="node"><title>\\PureLib\\MongoDB\\Test\\Config</title>
<polygon fill="none" stroke="black" points="686,-374 632,-374 632,-338 686,-338 686,-374"/>
<text text-anchor="middle" x="659" y="-353.1" font-family="Times Roman,serif" font-size="11.00">Config</text>
</g>
<!-- \\PureLib\\MongoDB\\Test\\DBTest -->
<g id="node8" class="node"><title>\\PureLib\\MongoDB\\Test\\DBTest</title>
<polygon fill="none" stroke="black" points="686,-320 632,-320 632,-284 686,-284 686,-320"/>
<text text-anchor="middle" x="659" y="-299.1" font-family="Times Roman,serif" font-size="11.00">DBTest</text>
</g>
<!-- \\PureLib\\MongoDB\\Test\\DBTest&#45;&gt;\\PureLib\\MongoDB\\Test\\BaseTest -->
<g id="edge14" class="edge"><title>\\PureLib\\MongoDB\\Test\\DBTest&#45;&gt;\\PureLib\\MongoDB\\Test\\BaseTest</title>
<path fill="none" stroke="black" d="M631.753,-310.221C610.141,-316.724 579.157,-326.009 552,-334 543.097,-336.62 533.6,-339.389 524.442,-342.047"/>
<polygon fill="none" stroke="black" points="523.314,-338.73 514.682,-344.874 525.261,-345.453 523.314,-338.73"/>
</g>
<!-- \\PureLib\\MongoDB\\Client -->
<g id="node9" class="node"><title>\\PureLib\\MongoDB\\Client</title>
<polygon fill="none" stroke="black" points="686,-266 632,-266 632,-230 686,-230 686,-266"/>
<text text-anchor="middle" x="659" y="-245.1" font-family="Times Roman,serif" font-size="11.00">Client</text>
</g>
<!-- \\MongoClient -->
<g id="node13" class="node"><title>\\MongoClient</title>
<ellipse fill="none" stroke="black" cx="476" cy="-72" rx="75.1594" ry="18.3848"/>
<text text-anchor="middle" x="476" y="-68.4" font-family="Times Roman,serif" font-size="14.00" fill="gray">\MongoClient</text>
</g>
<!-- \\PureLib\\MongoDB\\Client&#45;&gt;\\MongoClient -->
<g id="edge6" class="edge"><title>\\PureLib\\MongoDB\\Client&#45;&gt;\\MongoClient</title>
<path fill="none" stroke="black" d="M634.566,-229.814C630.96,-226.941 627.338,-223.945 624,-221 577.569,-180.036 527.61,-127.851 499.237,-97.3594"/>
<polygon fill="none" stroke="black" points="501.53,-94.6843 492.166,-89.7283 496.395,-99.4422 501.53,-94.6843"/>
</g>
<!-- \\PureLib\\MongoDB\\DB -->
<g id="node10" class="node"><title>\\PureLib\\MongoDB\\DB</title>
<polygon fill="none" stroke="black" points="686,-212 632,-212 632,-176 686,-176 686,-212"/>
<text text-anchor="middle" x="659" y="-191.1" font-family="Times Roman,serif" font-size="11.00">DB</text>
</g>
<!-- \\MongoDB -->
<g id="node15" class="node"><title>\\MongoDB</title>
<ellipse fill="none" stroke="black" cx="476" cy="-18" rx="62.2254" ry="18.3848"/>
<text text-anchor="middle" x="476" y="-14.4" font-family="Times Roman,serif" font-size="14.00" fill="gray">\MongoDB</text>
</g>
<!-- \\PureLib\\MongoDB\\DB&#45;&gt;\\MongoDB -->
<g id="edge8" class="edge"><title>\\PureLib\\MongoDB\\DB&#45;&gt;\\MongoDB</title>
<path fill="none" stroke="black" d="M633.139,-175.899C629.887,-173.103 626.743,-170.106 624,-167 582.322,-119.809 600.578,-85.0525 552,-45 546.429,-40.407 540.019,-36.5689 533.335,-33.3679"/>
<polygon fill="none" stroke="black" points="534.67,-30.1321 524.101,-29.3867 531.898,-36.5601 534.67,-30.1321"/>
</g>
<!-- \\PureLib\\MongoDB\\Map -->
<g id="node11" class="node"><title>\\PureLib\\MongoDB\\Map</title>
<polygon fill="none" stroke="black" points="686,-158 632,-158 632,-122 686,-122 686,-158"/>
<text text-anchor="middle" x="659" y="-137.1" font-family="Times Roman,serif" font-size="11.00">Map</text>
</g>
</g>
</svg>
